<svg version="1.1" id="Layer_1" xmlns="http://www.w3.org/2000/svg" xmlns:xlink="http://www.w3.org/1999/xlink" x="0px" y="0px"
	 width="100%" viewBox="0 0 1345 361" enable-background="new 0 0 1345 361" xml:space="preserve">
<path fill="#FFFFFF" opacity="1.000000" stroke="none" 
	d="
M965.000000,362.000000 
	C644.833374,362.000000 325.166748,361.992340 5.500144,362.093109 
	C1.751298,362.094299 0.901863,361.249969 0.905540,357.500031 
	C1.020772,240.000153 1.019161,122.500130 0.904799,5.000250 
	C0.901466,1.576655 1.576166,0.905415 4.999863,0.906175 
	C450.666443,1.005087 896.333008,1.005081 1341.999634,0.906243 
	C1345.422241,0.905484 1346.098633,1.575125 1346.095337,4.999774 
	C1345.980957,122.666313 1345.980835,240.332993 1346.095215,357.999542 
	C1346.098511,361.422668 1345.424927,362.098236 1342.000244,362.095123 
	C1216.500244,361.982025 1091.000122,362.000000 965.000000,362.000000 
z"/>
<path fill="#020202" opacity="1.000000" stroke="none" 
	d="
M884.114746,206.169006 
	C880.349060,207.243225 879.649109,208.507935 881.668884,212.061310 
	C890.939331,228.370346 899.815125,244.903992 908.784668,261.383087 
	C909.303650,262.336456 910.378052,263.170685 909.816284,265.001831 
	C904.360901,265.001831 898.770874,264.903534 893.187134,265.049408 
	C890.907166,265.109009 890.585754,263.506775 889.816589,262.081207 
	C881.220459,246.149399 872.561768,230.251175 864.033997,214.282990 
	C862.818787,212.007477 861.610352,210.839966 858.760071,210.916458 
	C849.937683,211.153214 841.101379,211.145844 832.278198,210.925323 
	C829.193481,210.848236 828.396179,211.691559 828.429382,214.768738 
	C828.594727,230.092255 828.387512,245.420090 828.591980,260.742676 
	C828.639465,264.302887 827.605469,265.386780 824.150574,265.060211 
	C820.214417,264.688080 814.998840,266.228180 812.616638,264.226715 
	C810.113770,262.123749 811.872498,256.745148 811.867004,252.808334 
	C811.810303,212.496201 811.910034,172.183609 811.718811,131.872299 
	C811.698425,127.580231 812.899902,126.756859 816.928772,126.825691 
	C831.916504,127.081787 846.916077,126.692741 861.902100,126.995087 
	C877.456421,127.308907 891.135925,132.024689 899.663940,146.172058 
	C912.066895,166.747498 904.920593,194.449982 884.114746,206.169006 
z"/>
<path fill="#020202" opacity="1.000000" stroke="none" 
	d="
M341.832062,202.999908 
	C341.832062,178.834137 341.916412,155.167740 341.742950,131.503250 
	C341.716309,127.869057 342.449158,126.753647 346.302490,126.821548 
	C361.130646,127.082840 375.966156,126.937202 390.798920,126.922073 
	C395.650787,126.917122 400.416656,127.493607 405.120087,128.700195 
	C421.152527,132.813095 431.507660,142.706482 434.327789,159.128769 
	C437.174255,175.704468 434.823120,191.073792 420.433685,202.300262 
	C418.739471,203.622055 416.946198,205.212021 414.960632,205.691833 
	C408.753235,207.191940 410.568970,210.106903 412.726685,213.960266 
	C422.044403,230.600266 431.124023,247.373596 440.774017,264.980957 
	C434.200684,264.980957 428.337982,265.006805 422.475769,264.966522 
	C420.500946,264.952942 420.391815,263.092499 419.723541,261.858826 
	C411.494507,246.667587 403.194824,231.513214 395.144043,216.227829 
	C393.186157,212.510452 391.171692,210.548889 386.496368,210.854935 
	C378.364838,211.387177 370.170471,211.125763 362.008514,210.936447 
	C359.151581,210.870193 358.411835,211.712799 358.438232,214.541504 
	C358.579987,229.706268 358.407990,244.874130 358.576019,260.038361 
	C358.615875,263.635712 358.141296,265.705933 353.849060,265.055573 
	C349.955627,264.465668 344.695587,266.759613 342.421143,264.111511 
	C340.506744,261.882599 341.846771,256.811157 341.841614,252.997925 
	C341.819305,236.498611 341.832062,219.999268 341.832062,202.999908 
z"/>
<path fill="#040404" opacity="1.000000" stroke="none" 
	d="
M1047.376221,218.380219 
	C1034.584351,271.345947 980.357666,276.875061 952.919434,255.116653 
	C940.068909,244.926239 932.690735,231.418350 929.780212,215.552094 
	C925.873230,194.253723 926.816895,173.313507 938.003113,154.097351 
	C950.920715,131.906982 971.021545,122.639275 996.055176,125.371292 
	C1021.990051,128.201675 1038.012695,143.951584 1045.880005,168.161713 
	C1051.187744,184.494995 1051.081055,201.242630 1047.376221,218.380219 
z"/>
<path fill="#272729" opacity="1.000000" stroke="none" 
	d="
M208.992371,230.000000 
	C208.991776,240.661911 208.892334,250.825348 209.050171,260.984802 
	C209.098083,264.069153 208.488892,265.449829 204.988586,265.327484 
	C200.351669,265.165375 195.662201,265.448669 191.048477,265.991943 
	C186.790146,266.493378 185.709564,264.985962 185.730804,260.817474 
	C185.892792,228.999878 185.819458,197.181107 185.819687,165.362686 
	C185.819824,144.205933 185.818893,123.049187 185.821838,101.892433 
	C185.822845,94.620125 183.410217,93.615074 177.820572,93.749878 
	C165.000717,94.059044 152.167435,93.767151 139.341644,93.906937 
	C136.376480,93.939255 135.185989,93.239578 135.342758,90.041489 
	C135.603439,84.723389 135.536667,79.379402 135.365646,74.054100 
	C135.279892,71.383972 135.877182,70.258575 138.871414,70.268539 
	C154.860535,70.321785 170.853577,69.924484 186.838974,70.142990 
	C201.717575,70.346367 208.984451,78.124077 208.988037,93.064201 
	C208.998932,138.542801 208.992188,184.021393 208.992371,230.000000 
z"/>
<path fill="#020202" opacity="1.000000" stroke="none" 
	d="
M627.864624,126.957993 
	C645.295227,127.979942 659.508911,134.164062 666.337952,150.603928 
	C673.488037,167.816666 672.447083,184.934357 660.540588,200.094086 
	C653.487488,209.074326 643.397644,212.966064 632.232483,214.021072 
	C621.428833,215.041885 610.571167,214.694382 599.763367,214.347107 
	C594.287476,214.171173 593.267822,216.013565 593.391846,220.995163 
	C593.723633,234.317993 593.392212,247.656128 593.584106,260.984467 
	C593.632019,264.310883 592.665771,265.337799 589.406616,265.062378 
	C585.453857,264.728363 580.157104,266.356262 577.829773,264.356384 
	C575.087524,261.999969 576.979797,256.557861 576.971924,252.471725 
	C576.894165,212.145355 576.976257,171.818604 576.837708,131.492569 
	C576.825195,127.856880 577.549500,126.756897 581.394043,126.821625 
	C596.720459,127.079659 612.053772,126.930222 627.864624,126.957993 
z"/>
<path fill="#29292B" opacity="1.000000" stroke="none" 
	d="
M244.962677,147.139893 
	C244.946823,185.434219 244.872940,223.242844 245.046448,261.050354 
	C245.065872,265.281464 243.963638,266.511871 239.808746,266.038330 
	C234.694687,265.455414 229.513840,265.337494 224.359070,265.283020 
	C221.762115,265.255524 221.080231,264.366425 221.085342,261.800446 
	C221.166611,220.827728 220.818100,179.850571 221.347839,138.884537 
	C221.500870,127.050613 228.440460,118.911980 241.154343,118.848572 
	C257.976105,118.764664 274.799255,118.896095 291.620087,118.741783 
	C294.653351,118.713959 295.153687,119.860931 295.066498,122.487617 
	C294.895264,127.645180 294.817902,132.822861 295.088684,137.971878 
	C295.257080,141.174850 294.101624,141.836761 291.115295,141.801285 
	C277.959167,141.644943 264.799469,141.806732 251.642654,141.683472 
	C247.949310,141.648865 245.487686,142.695969 244.962677,147.139893 
z"/>
<path fill="#040404" opacity="1.000000" stroke="none" 
	d="
M712.973267,151.885986 
	C715.712769,144.355560 718.473999,137.243164 720.940735,130.030060 
	C721.785522,127.559967 722.986084,126.698997 725.563110,126.870239 
	C730.194702,127.177971 735.893494,125.573334 739.184570,127.743240 
	C742.197144,129.729507 742.636169,135.640274 744.177856,139.833252 
	C758.943909,179.993500 773.703796,220.156021 788.461914,260.319183 
	C788.970032,261.701996 789.441162,263.098480 790.110962,265.005066 
	C784.786072,265.005066 779.853760,264.860596 774.935730,265.063324 
	C772.302673,265.171875 772.080811,263.413147 771.479553,261.708160 
	C767.949097,251.697449 764.401245,241.692886 760.853577,231.688263 
	C751.445557,205.157089 742.037598,178.625885 732.614136,152.100189 
	C732.237488,151.039978 731.702576,150.035995 731.139587,148.778381 
	C729.528015,149.472534 729.473450,150.901093 729.089783,151.980118 
	C716.141724,188.394501 703.192993,224.808792 690.383240,261.271881 
	C689.402710,264.062805 688.291748,265.301941 685.188354,265.082397 
	C680.888367,264.778229 676.550720,265.005981 671.430481,265.005981 
	C685.355957,227.128662 699.117737,189.696609 712.973267,151.885986 
z"/>
<path fill="#2B2B2D" opacity="1.000000" stroke="none" 
	d="
M99.259361,185.804749 
	C99.260040,181.004608 99.336243,176.675186 99.234070,172.349960 
	C99.168938,169.592743 100.257843,168.548798 103.069695,168.564117 
	C119.214661,168.652084 135.376160,168.162628 151.501053,168.737946 
	C165.600388,169.240997 172.718140,175.789154 173.000763,190.849457 
	C173.437912,214.143967 173.048172,237.453140 173.193314,260.754944 
	C173.214096,264.090607 172.575577,265.448364 168.927429,265.359222 
	C163.785980,265.233551 158.609619,265.569824 153.484741,266.077545 
	C150.146027,266.408356 149.312668,265.356171 149.336807,262.064270 
	C149.485687,241.758728 149.416779,221.451523 149.406693,201.144882 
	C149.402512,192.742737 148.816315,192.169708 140.321167,192.164062 
	C128.503357,192.156189 116.677040,191.902481 104.871826,192.288239 
	C99.961845,192.448669 98.579712,190.668106 99.259361,185.804749 
z"/>
<path fill="#020202" opacity="1.000000" stroke="none" 
	d="
M463.166992,138.724487 
	C463.162262,126.927559 463.162262,126.927559 474.427948,126.927559 
	C497.069794,126.927559 519.712158,127.001801 542.352966,126.848618 
	C545.801941,126.825294 546.852051,127.679886 546.794495,131.223373 
	C546.635620,141.000015 546.808594,141.002838 536.877014,141.002838 
	C513.902222,141.002838 490.927185,141.043320 467.953125,140.913513 
	C466.389221,140.904663 463.712738,142.581375 463.166992,138.724487 
z"/>
<path fill="#020202" opacity="1.000000" stroke="none" 
	d="
M517.000000,254.997940 
	C526.498047,254.998016 535.502930,255.207794 544.491394,254.914246 
	C549.365356,254.755051 547.654053,258.016510 547.783020,260.255524 
	C547.914490,262.537048 548.797546,265.120941 544.488464,265.091187 
	C518.495300,264.911530 492.499664,264.906311 466.506531,265.087128 
	C461.643921,265.120972 463.345825,261.983704 463.216919,259.744629 
	C463.085571,257.463104 462.199097,254.848953 466.512054,254.907013 
	C483.172089,255.131287 499.836945,254.998001 517.000000,254.997940 
z"/>
<path fill="#010101" opacity="1.000000" stroke="none" 
	d="
M494.000000,203.000687 
	C484.525482,203.000641 475.542328,202.768097 466.580200,203.101318 
	C462.274628,203.261429 463.024292,200.650726 463.228271,198.340302 
	C463.419678,196.172195 461.472656,192.889633 466.405823,192.923630 
	C490.669128,193.090790 514.934448,193.058380 539.198486,192.954254 
	C544.623230,192.930969 541.720276,196.791916 542.215149,198.929321 
	C542.770996,201.330032 542.547119,203.164703 538.872314,203.103210 
	C524.085144,202.855743 509.291351,203.000717 494.000000,203.000687 
z"/>
<path fill="#FBFBFB" opacity="1.000000" stroke="none" 
	d="
M831.270386,141.695496 
	C841.907654,141.751785 852.079651,141.532883 862.228149,141.924911 
	C884.288696,142.777130 896.216370,163.761383 885.849548,183.426331 
	C881.127319,192.384155 872.531433,195.215530 863.268921,195.680328 
	C852.632263,196.214096 841.951782,195.836472 831.291931,195.975647 
	C829.064514,196.004715 828.450623,195.172775 828.457825,193.078339 
	C828.513306,176.918015 828.496277,160.757370 828.477600,144.596878 
	C828.475708,142.949982 828.598877,141.529068 831.270386,141.695496 
z"/>
<path fill="#FBFBFB" opacity="1.000000" stroke="none" 
	d="
M383.975586,195.935089 
	C376.483734,195.934753 369.484070,195.811203 362.492462,195.994324 
	C359.636780,196.069122 358.368439,195.610092 358.406860,192.277634 
	C358.587494,176.621109 358.551331,160.960815 358.428680,145.303162 
	C358.406433,142.465851 359.237732,141.577194 362.089661,141.637100 
	C372.412811,141.853897 382.755737,141.508759 393.064087,141.974899 
	C414.819519,142.958679 426.630798,165.266174 415.481812,184.147385 
	C410.476074,192.624786 402.037567,194.992493 392.960022,195.783707 
	C390.147339,196.028870 387.301636,195.895386 383.975586,195.935089 
z"/>
<path fill="#FEFEFE" opacity="1.000000" stroke="none" 
	d="
M948.375488,222.430588 
	C942.323608,203.214676 941.763672,184.381653 949.963562,166.099396 
	C957.469849,149.363342 970.722595,140.593277 989.277771,140.745132 
	C1007.667786,140.895645 1020.769348,149.861557 1027.845947,166.502121 
	C1036.367310,186.540558 1036.323486,207.089844 1027.105957,226.910172 
	C1019.638245,242.967728 1006.399414,251.221512 988.501343,251.122604 
	C970.573669,251.023544 958.086548,242.155930 950.111511,226.437347 
	C949.512939,225.257614 949.064819,224.001556 948.375488,222.430588 
z"/>
<path fill="#FBFBFB" opacity="1.000000" stroke="none" 
	d="
M653.622803,164.674652 
	C654.137512,168.762543 654.253540,172.440033 653.695435,176.072723 
	C651.372925,191.191528 641.738159,199.253616 625.198425,199.667099 
	C615.873108,199.900208 606.535828,199.621231 597.206909,199.764801 
	C594.474976,199.806839 593.407532,199.137741 593.428345,196.191238 
	C593.548340,179.196106 593.553223,162.199142 593.422241,145.204163 
	C593.399292,142.235321 594.466309,141.588638 597.186462,141.641251 
	C607.346436,141.837738 617.521423,141.554672 627.669983,141.965149 
	C642.242249,142.554596 650.631226,150.002838 653.622803,164.674652 
z"/>
</svg>