<svg version="1.1" viewBox="0.0 0.0 960.0 720.0" fill="none" stroke="none" stroke-linecap="square" stroke-miterlimit="10" xmlns:xlink="http://www.w3.org/1999/xlink" xmlns="http://www.w3.org/2000/svg"><clipPath id="p.0"><path d="m0 0l960.0 0l0 720.0l-960.0 0l0 -720.0z" clip-rule="nonzero"/></clipPath><g clip-path="url(#p.0)"><path fill="#000000" fill-opacity="0.0" d="m0 0l960.0 0l0 720.0l-960.0 0z" fill-rule="evenodd"/><path fill="#ffffff" d="m564.2336 31.204725l260.8819 0l0 338.89764l-260.8819 0z" fill-rule="evenodd"/><path stroke="#ffffff" stroke-width="1.0" stroke-linejoin="round" stroke-linecap="butt" d="m564.2336 31.204725l260.8819 0l0 338.89764l-260.8819 0z" fill-rule="evenodd"/><path fill="#000000" fill-opacity="0.0" d="m584.0446 37.598427l221.25983 0l0 326.11023l-221.25983 0z" fill-rule="evenodd"/><path stroke="#ffffff" stroke-width="1.0" stroke-linejoin="round" stroke-linecap="butt" d="m584.0446 37.598427l221.25983 0l0 326.11023l-221.25983 0z" fill-rule="evenodd"/><path fill="#000000" d="m704.62274 112.23905q24.875 0 40.75 13.15625q15.890625 13.140617 15.890625 36.718742q0 18.75 -8.203125 31.125q-8.203125 12.359375 -24.859375 17.046875l0 0.515625q14.453125 2.875 21.28125 13.484375q6.84375 10.609375 7.875 36.390625q0.65625 16.65625 3.125 26.171875q2.484375 9.5 7.421875 15.75l-28.25 0q-2.34375 -3.125 -3.0625 -6.1875q-0.71875 -3.0625 -1.359375 -8.390625l-1.046875 -20.96875q-0.390625 -14.71875 -6.3125 -29.9375q-5.921875 -15.234375 -26.109375 -15.890625l-62.625 0l0 81.375l-25.265625 0l0 -190.35938l90.75 0zm-11.328125 87.76562q21.09375 0 31.90625 -8.265625q10.8125 -8.28125 10.8125 -25.71875q0 -15.375 -8.671875 -23.890625q-8.65625 -8.53125 -24.28125 -8.53125l-63.921875 0l0 66.40625l54.15625 0z" fill-rule="nonzero"/></g></svg>